<svg xmlns="http://www.w3.org/2000/svg" xmlns:xlink="http://www.w3.org/1999/xlink" version="1.1" width="256" height="256" viewBox="0 0 256 256" xml:space="preserve">
<g style="stroke: none; stroke-width: 0; stroke-dasharray: none; stroke-linecap: butt; stroke-linejoin: miter; stroke-miterlimit: 10; fill: none; fill-rule: nonzero; opacity: 1;" transform="translate(1.4065934065934016 1.4065934065934016) scale(2.81 2.81)">
	<circle cx="45" cy="45" r="45" style="stroke: none; stroke-width: 1; stroke-dasharray: none; stroke-linecap: butt; stroke-linejoin: miter; stroke-miterlimit: 10; fill: rgb(230,62,50); fill-rule: nonzero; opacity: 1;" transform="  matrix(1 0 0 1 0 0) "/>
	<path d="M 62.238 59.916 H 27.762 c -2.066 0 -3.747 -1.681 -3.747 -3.747 c 0 -2.195 0.957 -4.271 2.626 -5.696 c 0.777 -0.664 1.223 -1.632 1.223 -2.654 V 35.135 C 27.865 25.687 35.552 18 45 18 s 17.136 7.687 17.136 17.135 v 12.683 c 0 1.022 0.446 1.99 1.224 2.655 c 1.669 1.426 2.626 3.502 2.626 5.695 C 65.985 58.235 64.305 59.916 62.238 59.916 z M 28.024 55.916 h 33.952 c -0.067 -0.928 -0.502 -1.792 -1.215 -2.401 c -1.669 -1.426 -2.626 -3.502 -2.626 -5.696 V 35.135 C 58.136 27.893 52.243 22 45 22 c -7.243 0 -13.135 5.893 -13.135 13.135 v 12.683 c 0 2.193 -0.957 4.27 -2.625 5.696 C 28.525 54.124 28.091 54.988 28.024 55.916 z" style="stroke: none; stroke-width: 1; stroke-dasharray: none; stroke-linecap: butt; stroke-linejoin: miter; stroke-miterlimit: 10; fill: rgb(255,255,255); fill-rule: nonzero; opacity: 1;" transform=" matrix(1 0 0 1 0 0) " stroke-linecap="round"/>
	<path d="M 39.918 64.884 c 0 0.011 -0.002 0.022 -0.002 0.033 C 39.916 67.724 42.192 70 45 70 s 5.084 -2.276 5.084 -5.084 c 0 -0.011 -0.002 -0.022 -0.002 -0.033" style="stroke: none; stroke-width: 1; stroke-dasharray: none; stroke-linecap: butt; stroke-linejoin: miter; stroke-miterlimit: 10; fill: rgb(255,255,255); fill-rule: nonzero; opacity: 1;" transform=" matrix(1 0 0 1 0 0) " stroke-linecap="round"/>
</g>
</svg>